<svg width="45" height="44" viewBox="0 0 45 44" fill="none" xmlns="http://www.w3.org/2000/svg">
<path d="M41.432 32.1202C41.346 31.8153 41.1451 31.5557 40.8715 31.3961C40.5979 31.2365 40.273 31.1894 39.9653 31.2646L36.922 32.0835C38.5873 29.6287 39.5971 26.7887 39.8553 23.8335C40.105 21.0687 39.7007 18.284 38.6752 15.7043C37.6497 13.1246 36.0317 10.8223 33.952 8.98352C33.7116 8.78468 33.4042 8.6853 33.0929 8.70576C32.7816 8.72621 32.4899 8.86494 32.2776 9.09352C32.0639 9.33677 31.9555 9.65484 31.9761 9.97794C31.9967 10.301 32.1447 10.6027 32.3876 10.8169C34.1796 12.3987 35.5738 14.3805 36.4572 16.6016C37.3405 18.8228 37.6882 21.2207 37.472 23.6013C37.2626 26.1087 36.4217 28.5223 35.0276 30.6169L34.722 27.5491C34.745 27.3685 34.7275 27.1851 34.6706 27.0122C34.6137 26.8393 34.5189 26.6814 34.3931 26.5498C34.2673 26.4182 34.1138 26.3164 33.9436 26.2518C33.7735 26.1871 33.5911 26.1613 33.4097 26.1762C33.2283 26.1911 33.0525 26.2463 32.8951 26.3378C32.7378 26.4293 32.6029 26.5548 32.5003 26.7051C32.3976 26.8554 32.3298 27.0267 32.3019 27.2066C32.2739 27.3864 32.2865 27.5703 32.3387 27.7446L32.9498 35.6157L40.5887 33.5869C40.8913 33.4983 41.148 33.2963 41.3051 33.023C41.4623 32.7497 41.5077 32.4262 41.432 32.1202Z" fill="#FA6400"/>
<path d="M5.76732 20.8759C5.92976 20.9804 6.1135 21.0472 6.30509 21.0715C6.62407 21.1133 6.94668 21.0277 7.20295 20.8332C7.45921 20.6387 7.62846 20.3511 7.67398 20.0326C8.179 16.3038 10.074 12.9034 12.9795 10.5123C15.885 8.12128 19.5866 6.9161 23.3429 7.13814L20.6051 9.00814C20.4114 9.15407 20.2655 9.35433 20.1859 9.58345C20.1064 9.81256 20.0968 10.0602 20.1584 10.2947C20.22 10.5293 20.35 10.7403 20.5318 10.9007C20.7136 11.0612 20.9391 11.164 21.1795 11.1959C21.4549 11.2211 21.7306 11.1521 21.9618 11.0004L28.4762 6.52703L22.9029 0.929247C22.8037 0.777278 22.6719 0.649301 22.5171 0.554605C22.3623 0.45991 22.1884 0.400874 22.0079 0.381783C21.8275 0.362692 21.645 0.384024 21.4738 0.444233C21.3026 0.504441 21.147 0.602013 21.0182 0.729866C20.8894 0.85772 20.7907 1.01264 20.7293 1.18339C20.6679 1.35414 20.6452 1.53643 20.663 1.71703C20.6808 1.89762 20.7386 2.07199 20.8321 2.22747C20.9257 2.38295 21.0527 2.51564 21.204 2.61591L23.2818 4.69369C18.9439 4.48628 14.6859 5.91269 11.3483 8.69135C8.01077 11.47 5.83623 15.399 5.25398 19.7026C5.22265 19.9265 5.25404 20.1547 5.34466 20.3619C5.43529 20.569 5.5816 20.747 5.76732 20.8759Z" fill="#FA6400"/>
<path d="M27.0584 36.5785C25.1498 37.1882 23.1365 37.4003 21.1428 37.2018C18.7147 36.9638 16.381 36.1384 14.3432 34.7969C12.3053 33.4554 10.6246 31.6381 9.44615 29.5018L12.4895 30.6385C12.77 30.6872 13.0587 30.6364 13.3058 30.4948C13.5529 30.3533 13.7428 30.13 13.8428 29.8634C13.9427 29.5968 13.9465 29.3037 13.8534 29.0346C13.7603 28.7655 13.5762 28.5374 13.3328 28.3896L7.72282 26.3118L5.92615 25.6641L4.56949 33.4252C4.52245 33.7353 4.59646 34.0517 4.77619 34.3087C4.95592 34.5658 5.22762 34.744 5.53504 34.8063H5.74282C6.03048 34.8115 6.31077 34.7151 6.53434 34.534C6.75791 34.3529 6.91042 34.0988 6.96504 33.8163L7.47837 30.883C8.86074 33.3045 10.8024 35.3602 13.1413 36.8783C15.4801 38.3964 18.1482 39.3329 20.9228 39.6096C23.2425 39.8395 25.5848 39.5899 27.8039 38.8763C28.0865 38.7593 28.3149 38.5406 28.4441 38.2634C28.5733 37.9862 28.5939 37.6706 28.5018 37.379C28.4097 37.0874 28.2116 36.8409 27.9467 36.6881C27.6817 36.5354 27.3691 36.4876 27.0706 36.5541L27.0584 36.5785Z" fill="#FA6400"/>
<path d="M27.3887 15.8906H17.6109C17.2867 15.8906 16.9759 16.0194 16.7467 16.2486C16.5174 16.4778 16.3887 16.7887 16.3887 17.1128V26.8906C16.3887 27.2148 16.5174 27.5257 16.7467 27.7549C16.9759 27.9841 17.2867 28.1128 17.6109 28.1128H27.3887C27.7128 28.1128 28.0237 27.9841 28.2529 27.7549C28.4821 27.5257 28.6109 27.2148 28.6109 26.8906V17.1128C28.6109 16.7887 28.4821 16.4778 28.2529 16.2486C28.0237 16.0194 27.7128 15.8906 27.3887 15.8906ZM26.1664 25.6684H18.8331V18.3351H26.1664V25.6684Z" fill="#FA6400"/>
</svg>
