<svg width="45" height="44" viewBox="0 0 45 44" fill="none" xmlns="http://www.w3.org/2000/svg">
<path d="M37.6254 26.1265C37.6238 24.6679 37.0436 23.2696 36.0123 22.2383C34.981 21.207 33.5827 20.6268 32.1242 20.6251H12.877C12.1475 20.6244 11.4481 20.3343 10.9322 19.8185C10.4164 19.3027 10.1262 18.6033 10.1254 17.8739V13.5548C11.0708 13.3084 11.9333 12.8144 12.624 12.1236C13.3148 11.4329 13.8089 10.5704 14.0553 9.62509H30.9458C31.2805 10.9212 32.0764 12.0509 33.1843 12.8022C34.2923 13.5535 35.6362 13.8749 36.9642 13.7063C38.2922 13.5376 39.5131 12.8904 40.398 11.8859C41.283 10.8815 41.7712 9.58876 41.7712 8.25009C41.7712 6.91143 41.283 5.61872 40.398 4.61427C39.5131 3.60983 38.2922 2.96261 36.9642 2.79393C35.6362 2.62525 34.2923 2.9467 33.1843 3.69802C32.0764 4.44933 31.2805 5.57894 30.9458 6.87509H14.0553C13.8148 5.93702 13.3303 5.0793 12.6511 4.389C11.9718 3.69871 11.122 3.20043 10.188 2.94475C9.2539 2.68906 8.26882 2.68508 7.33271 2.9332C6.39661 3.18132 5.54282 3.67271 4.85803 4.35749C4.17324 5.04227 3.68183 5.89604 3.43369 6.83214C3.18555 7.76824 3.18951 8.75333 3.44518 9.6874C3.70084 10.6215 4.19911 11.4713 4.88938 12.1505C5.57966 12.8298 6.43737 13.3143 7.37545 13.5548V17.8739C7.37719 19.3324 7.95738 20.7307 8.98875 21.762C10.0201 22.7933 11.4184 23.3734 12.877 23.3751H32.1242C32.8537 23.3759 33.553 23.666 34.0688 24.1818C34.5846 24.6976 34.8747 25.397 34.8754 26.1265V30.2501H30.7504V34.3751H14.0553C13.7207 33.0789 12.9248 31.9493 11.8168 31.198C10.7089 30.4467 9.36495 30.1253 8.03696 30.2939C6.70896 30.4626 5.48807 31.1098 4.60314 32.1143C3.71821 33.1187 3.22998 34.4114 3.22998 35.7501C3.22998 37.0888 3.71821 38.3815 4.60314 39.3859C5.48807 40.3904 6.70896 41.0376 8.03696 41.2063C9.36495 41.3749 10.7089 41.0535 11.8168 40.3022C12.9248 39.5509 13.7207 38.4212 14.0553 37.1251H30.7504V41.2501H41.7504V30.2501H37.6254V26.1265ZM36.2504 5.50009C36.7943 5.50009 37.326 5.66138 37.7783 5.96355C38.2305 6.26573 38.583 6.69522 38.7911 7.19771C38.9993 7.70021 39.0537 8.25314 38.9476 8.78659C38.8415 9.32004 38.5796 9.81004 38.195 10.1946C37.8104 10.5792 37.3204 10.8411 36.7869 10.9473C36.2535 11.0534 35.7006 10.9989 35.1981 10.7908C34.6956 10.5826 34.2661 10.2301 33.9639 9.77791C33.6617 9.32568 33.5004 8.79399 33.5004 8.25009C33.5011 7.52096 33.7911 6.82189 34.3067 6.30631C34.8222 5.79074 35.5213 5.50079 36.2504 5.50009ZM6.00045 8.25009C6.00045 7.70619 6.16173 7.17451 6.4639 6.72228C6.76608 6.27004 7.19557 5.91757 7.69807 5.70942C8.20056 5.50128 8.7535 5.44682 9.28694 5.55293C9.82039 5.65904 10.3104 5.92096 10.695 6.30555C11.0796 6.69014 11.3415 7.18015 11.4476 7.7136C11.5537 8.24704 11.4993 8.79998 11.2911 9.30247C11.083 9.80497 10.7305 10.2345 10.2783 10.5366C9.82603 10.8388 9.29434 11.0001 8.75045 11.0001C8.02131 10.9994 7.32224 10.7094 6.80667 10.1939C6.29109 9.6783 6.00114 8.97923 6.00045 8.25009ZM8.75045 38.5001C8.20655 38.5001 7.67486 38.3388 7.22263 38.0366C6.77039 37.7345 6.41792 37.305 6.20978 36.8025C6.00164 36.3 5.94718 35.747 6.05329 35.2136C6.15939 34.6801 6.42131 34.1901 6.8059 33.8055C7.1905 33.421 7.6805 33.159 8.21395 33.0529C8.74739 32.9468 9.30033 33.0013 9.80282 33.2094C10.3053 33.4176 10.7348 33.77 11.037 34.2223C11.3392 34.6745 11.5004 35.2062 11.5004 35.7501C11.4997 36.4792 11.2098 37.1783 10.6942 37.6938C10.1786 38.2094 9.47957 38.4994 8.75045 38.5001ZM39.0004 33.0001V38.5001H33.5004V33.0001H39.0004Z" fill="#FA6400"/>
</svg>
