<svg width="45" height="44" viewBox="0 0 45 44" fill="none" xmlns="http://www.w3.org/2000/svg">
<path d="M41.75 20.625V23.375H8.75V8.25H22.5V5.5H7.375C7.01033 5.5 6.66059 5.64487 6.40273 5.90273C6.14487 6.16059 6 6.51033 6 6.875V23.375H3.25V4.125C3.25 3.76033 3.39487 3.41059 3.65273 3.15273C3.91059 2.89487 4.26033 2.75 4.625 2.75H25.25V0H4.625C3.53098 0 2.48177 0.434597 1.70818 1.20818C0.934597 1.98177 0.5 3.03098 0.5 4.125L0.5 31.625C0.5 31.9897 0.644866 32.3394 0.902728 32.5973C1.16059 32.8551 1.51033 33 1.875 33H14.0438L13.0675 39.875H11.5C11.1353 39.875 10.7856 40.0199 10.5277 40.2777C10.2699 40.5356 10.125 40.8853 10.125 41.25H7.375V44H37.625V41.25H34.875C34.875 40.8853 34.7301 40.5356 34.4723 40.2777C34.2144 40.0199 33.8647 39.875 33.5 39.875H31.9463L30.97 33H43.125C43.4897 33 43.8394 32.8551 44.0973 32.5973C44.3551 32.3394 44.5 31.9897 44.5 31.625V20.625H41.75ZM15.8312 39.875L16.8075 33H28.1787L29.155 39.875H15.8312ZM41.75 30.25H3.25V26.125H41.75V30.25Z" fill="#FA6400"/>
<path d="M30.1587 12.3748L28.4125 14.121L30.3512 16.0598L32.125 14.341C32.555 14.595 33.0176 14.7893 33.5 14.9185V17.8748H36.25V14.9323C36.7324 14.8031 37.195 14.6088 37.625 14.3548L39.3712 16.101L41.31 14.1623L39.5912 12.3748C39.8453 11.9448 40.0396 11.4822 40.1687 10.9998H43.125V8.24976H40.1825C40.0533 7.76733 39.859 7.30474 39.605 6.87476L41.3512 5.12851L39.3988 3.14851L37.625 4.90851C37.195 4.65447 36.7324 4.46019 36.25 4.33101V1.37476H33.5V4.31726C33.0176 4.44643 32.555 4.64072 32.125 4.89476L30.3512 3.14851L28.3988 5.10101L30.1587 6.87476C29.9047 7.30474 29.7104 7.76733 29.5812 8.24976H26.625V10.9998H29.5675C29.701 11.4829 29.8999 11.9455 30.1587 12.3748ZM34.875 6.87476C35.4189 6.87476 35.9506 7.03604 36.4028 7.33821C36.8551 7.64039 37.2075 8.06988 37.4157 8.57238C37.6238 9.07487 37.6783 9.62781 37.5722 10.1613C37.466 10.6947 37.2041 11.1847 36.8195 11.5693C36.4349 11.9539 35.9449 12.2158 35.4115 12.3219C34.878 12.428 34.3251 12.3736 33.8226 12.1654C33.3201 11.9573 32.8906 11.6048 32.5885 11.1526C32.2863 10.7003 32.125 10.1687 32.125 9.62475C32.125 8.89541 32.4147 8.19594 32.9305 7.68021C33.4462 7.16449 34.1457 6.87476 34.875 6.87476Z" fill="#FA6400"/>
</svg>
