<svg width="41" height="40" viewBox="0 0 41 40" fill="none" xmlns="http://www.w3.org/2000/svg">
<path d="M37.5213 0H3.47872C2.68872 0 1.93107 0.313829 1.37245 0.872448C0.813829 1.43107 0.5 2.18872 0.5 2.97872V37.0213C0.5 37.8113 0.813829 38.5689 1.37245 39.1276C1.93107 39.6862 2.68872 40 3.47872 40H37.5213C38.3113 40 39.0689 39.6862 39.6276 39.1276C40.1862 38.5689 40.5 37.8113 40.5 37.0213V2.97872C40.5 2.18872 40.1862 1.43107 39.6276 0.872448C39.0689 0.313829 38.3113 0 37.5213 0ZM3.47872 2.55319H37.5213C37.6341 2.55319 37.7424 2.59802 37.8222 2.67783C37.902 2.75763 37.9468 2.86587 37.9468 2.97872V25.5319H31.417C31.0257 25.5312 30.6382 25.6079 30.2767 25.7576C29.9152 25.9073 29.5868 26.1271 29.3106 26.4043L25.2021 30.5128C25.1227 30.5927 25.0148 30.6378 24.9021 30.6383H16.0979C15.9855 30.6384 15.8777 30.594 15.7979 30.5149L11.6894 26.4043C11.4132 26.1271 11.0848 25.9073 10.7233 25.7576C10.3618 25.6079 9.97427 25.5312 9.58298 25.5319H3.05319V2.97872C3.05319 2.86587 3.09802 2.75763 3.17783 2.67783C3.25763 2.59802 3.36587 2.55319 3.47872 2.55319ZM37.5213 37.4468H3.47872C3.36587 37.4468 3.25763 37.402 3.17783 37.3222C3.09802 37.2424 3.05319 37.1341 3.05319 37.0213V28.0851H9.58298C9.69535 28.085 9.80319 28.1294 9.88298 28.2085L13.9915 32.3191C14.2677 32.5963 14.596 32.8161 14.9575 32.9658C15.319 33.1155 15.7066 33.1922 16.0979 33.1915H24.9021C25.2934 33.1922 25.681 33.1155 26.0425 32.9658C26.404 32.8161 26.7323 32.5963 27.0085 32.3191L31.117 28.2106C31.1965 28.1307 31.3043 28.0856 31.417 28.0851H37.9468V37.0213C37.9468 37.1341 37.902 37.2424 37.8222 37.3222C37.7424 37.402 37.6341 37.4468 37.5213 37.4468ZM12.7894 19.2C12.5639 18.958 12.4411 18.6379 12.4469 18.3072C12.4528 17.9765 12.5868 17.6609 12.8206 17.427C13.0545 17.1931 13.3701 17.0592 13.7008 17.0533C14.0315 17.0475 14.3516 17.1702 14.5936 17.3957L19.2234 22.0234V8.08511C19.2234 7.74653 19.3579 7.42183 19.5973 7.18242C19.8367 6.94301 20.1614 6.80851 20.5 6.80851C20.8386 6.80851 21.1633 6.94301 21.4027 7.18242C21.6421 7.42183 21.7766 7.74653 21.7766 8.08511V22.0234L26.4064 17.3957C26.6484 17.1702 26.9685 17.0475 27.2992 17.0533C27.6299 17.0592 27.9455 17.1931 28.1794 17.427C28.4132 17.6609 28.5472 17.9765 28.5531 18.3072C28.5589 18.6379 28.4361 18.958 28.2106 19.2L21.4021 26.0085C21.1628 26.2476 20.8383 26.3819 20.5 26.3819C20.1617 26.3819 19.8372 26.2476 19.5979 26.0085L12.7894 19.2Z" fill="#FA6400"/>
</svg>
