<svg width="24" height="24" viewBox="0 0 24 24" fill="none" xmlns="http://www.w3.org/2000/svg">
<path d="M18.4582 12.9994C18.2382 12.9994 18.0082 12.9294 17.7882 12.8794C17.3427 12.7812 16.9048 12.6509 16.4782 12.4894C16.0143 12.3206 15.5043 12.3294 15.0465 12.514C14.5886 12.6986 14.2153 13.046 13.9982 13.4894L13.7782 13.9394C12.8042 13.3976 11.9092 12.7246 11.1182 11.9394C10.3329 11.1484 9.65999 10.2534 9.11817 9.27938L9.53817 8.99938C9.98153 8.7823 10.3289 8.40891 10.5136 7.95107C10.6982 7.49323 10.7069 6.98329 10.5382 6.51938C10.3794 6.0918 10.2491 5.65418 10.1482 5.20938C10.0982 4.98938 10.0582 4.75938 10.0282 4.52938C9.90673 3.825 9.53779 3.18712 8.98779 2.73062C8.43779 2.27412 7.74286 2.02899 7.02817 2.03938H4.02817C3.5972 2.03533 3.17042 2.12419 2.77688 2.29991C2.38334 2.47563 2.03228 2.73408 1.7476 3.05766C1.46292 3.38125 1.2513 3.76237 1.12716 4.17509C1.00301 4.58781 0.969247 5.02244 1.02817 5.44938C1.56091 9.63876 3.4742 13.5313 6.46582 16.512C9.45744 19.4928 13.3569 21.3919 17.5482 21.9094H17.9282C18.6656 21.9105 19.3776 21.6399 19.9282 21.1494C20.2445 20.8664 20.4973 20.5196 20.6696 20.1317C20.842 19.7438 20.9301 19.3238 20.9282 18.8994V15.8994C20.9159 15.2048 20.663 14.5359 20.2125 14.007C19.762 13.4782 19.142 13.122 18.4582 12.9994ZM18.9582 18.9994C18.958 19.1414 18.9276 19.2817 18.8689 19.411C18.8103 19.5403 18.7248 19.6557 18.6182 19.7494C18.5064 19.8459 18.3758 19.9179 18.2346 19.961C18.0934 20.004 17.9447 20.0171 17.7982 19.9994C14.0531 19.5192 10.5744 17.8059 7.91088 15.1297C5.24736 12.4535 3.55058 8.96672 3.08817 5.21938C3.07225 5.0729 3.0862 4.92471 3.12917 4.78377C3.17214 4.64283 3.24324 4.51207 3.33817 4.39938C3.43188 4.29271 3.54723 4.20722 3.67655 4.1486C3.80586 4.08997 3.94618 4.05956 4.08817 4.05938H7.08817C7.32071 4.05421 7.54779 4.13026 7.73031 4.27445C7.91283 4.41864 8.03938 4.62195 8.08817 4.84938C8.12817 5.12271 8.17817 5.39271 8.23817 5.65938C8.35369 6.18652 8.50743 6.70456 8.69817 7.20938L7.29817 7.85938C7.17846 7.9143 7.07079 7.99233 6.98132 8.08898C6.89186 8.18562 6.82237 8.29899 6.77684 8.42257C6.73131 8.54615 6.71064 8.67751 6.71601 8.8091C6.72139 8.94069 6.75271 9.06992 6.80817 9.18938C8.24737 12.2721 10.7254 14.7502 13.8082 16.1894C14.0516 16.2894 14.3247 16.2894 14.5682 16.1894C14.6929 16.1448 14.8075 16.0758 14.9053 15.9866C15.0032 15.8973 15.0823 15.7895 15.1382 15.6694L15.7582 14.2694C16.2751 14.4543 16.8028 14.6079 17.3382 14.7294C17.6048 14.7894 17.8748 14.8394 18.1482 14.8794C18.3756 14.9282 18.5789 15.0547 18.7231 15.2372C18.8673 15.4198 18.9433 15.6468 18.9382 15.8794L18.9582 18.9994Z" fill="white"/>
</svg>
