<svg width="40" height="36" viewBox="0 0 40 36" fill="none" xmlns="http://www.w3.org/2000/svg">
<path d="M33.1624 17.4038C33.338 17.562 33.4366 17.7764 33.4366 18C33.4366 18.2236 33.338 18.4381 33.1624 18.5963L20.6624 29.8463C20.4867 30.0043 20.2484 30.093 19.9999 30.093C19.7515 30.093 19.5132 30.0043 19.3374 29.8463L6.83745 18.5963C6.74534 18.519 6.67146 18.4259 6.62022 18.3224C6.56898 18.2189 6.54143 18.1071 6.53921 17.9938C6.53699 17.8806 6.56014 17.768 6.60729 17.663C6.65445 17.5579 6.72463 17.4625 6.81365 17.3823C6.90267 17.3022 7.00872 17.2391 7.12545 17.1966C7.24219 17.1542 7.36722 17.1333 7.4931 17.1353C7.61898 17.1373 7.74312 17.1621 7.85812 17.2083C7.97312 17.2544 8.07662 17.3209 8.16245 17.4038L19.9999 28.0561L31.8374 17.4038C32.0132 17.2458 32.2515 17.157 32.4999 17.157C32.7484 17.157 32.9867 17.2458 33.1624 17.4038ZM19.3374 18.5963C19.5132 18.7543 19.7515 18.843 19.9999 18.843C20.2484 18.843 20.4867 18.7543 20.6624 18.5963L33.1624 7.34626C33.328 7.18631 33.4182 6.97476 33.4139 6.75617C33.4096 6.53758 33.3112 6.32903 33.1395 6.17444C32.9677 6.01985 32.736 5.9313 32.4931 5.92744C32.2502 5.92358 32.0152 6.00472 31.8374 6.15376L19.9999 16.8061L8.16245 6.15376C7.98473 6.00472 7.74967 5.92358 7.50679 5.92744C7.26392 5.9313 7.03219 6.01985 6.86042 6.17444C6.68865 6.32903 6.59026 6.53758 6.58598 6.75617C6.58169 6.97476 6.67185 7.18631 6.83745 7.34626L19.3374 18.5963Z" fill="#FA6400"/>
</svg>
