<svg width="24" height="24" viewBox="0 0 24 24" fill="none" xmlns="http://www.w3.org/2000/svg">
<path d="M10 11C10.5523 11 11 10.5523 11 10V7C11 5.93913 11.4214 4.92172 12.1716 4.17157C12.9217 3.42143 13.9391 3 15 3H17V5H15C14.4696 5 13.9609 5.21071 13.5858 5.58579C13.2107 5.96086 13 6.46957 13 7V10C13 10.5523 13.4477 11 14 11H16.7192L16.2192 13H14C13.4477 13 13 13.4477 13 14V21H11V14C11 13.4477 10.5523 13 10 13H8V11H10Z" stroke="black" stroke-opacity="0.8" stroke-width="2" stroke-linecap="round" stroke-linejoin="round"/>
<ellipse cx="12" cy="11.5" rx="2" ry="2.5" fill="#333333"/>
</svg>
