<svg width="24" height="25" viewBox="0 0 24 25" fill="none" xmlns="http://www.w3.org/2000/svg">
<path d="M10 11.25C10.5523 11.25 11 10.8023 11 10.25V7.25C11 6.18913 11.4214 5.17172 12.1716 4.42157C12.9217 3.67143 13.9391 3.25 15 3.25H17V5.25H15C14.4696 5.25 13.9609 5.46071 13.5858 5.83579C13.2107 6.21086 13 6.71957 13 7.25V10.25C13 10.8023 13.4477 11.25 14 11.25H16.7192L16.2192 13.25H14C13.4477 13.25 13 13.6977 13 14.25V21.25H11V14.25C11 13.6977 10.5523 13.25 10 13.25H8V11.25H10Z" stroke="white" stroke-width="2" stroke-linecap="round" stroke-linejoin="round"/>
<ellipse cx="12" cy="11.75" rx="2" ry="2.5" fill="white"/>
</svg>
