<svg width="97" height="97" viewBox="0 0 97 97" fill="none" xmlns="http://www.w3.org/2000/svg">
<g filter="url(#filter0_d_2594_226)">
<circle cx="48.5" cy="47.5" r="38.5" fill="white"/>
<circle cx="48.5" cy="47.5" r="38.25" stroke="#FFF2E7" stroke-width="0.5"/>
</g>
<path d="M25.5424 40.4238V57.1741C25.5424 57.7911 25.7656 58.3828 26.1629 58.8191C26.5602 59.2554 27.0991 59.5005 27.661 59.5005H44.6102C44.9473 59.5005 45.2706 59.6475 45.509 59.9093C45.7474 60.1711 45.8814 60.5261 45.8814 60.8963C45.8814 61.2665 45.7474 61.6216 45.509 61.8834C45.2706 62.1451 44.9473 62.2922 44.6102 62.2922H40.7966V66.945H44.6102C44.9473 66.945 45.2706 67.0921 45.509 67.3539C45.7474 67.6157 45.8814 67.9707 45.8814 68.3409C45.8814 68.7111 45.7474 69.0661 45.509 69.3279C45.2706 69.5897 44.9473 69.7367 44.6102 69.7367H34.4407C34.1035 69.7367 33.7802 69.5897 33.5418 69.3279C33.3034 69.0661 33.1695 68.7111 33.1695 68.3409C33.1695 67.9707 33.3034 67.6157 33.5418 67.3539C33.7802 67.0921 34.1035 66.945 34.4407 66.945H38.2542V62.2922H27.661C26.4248 62.2922 25.2393 61.753 24.3652 60.7931C23.4911 59.8333 23 58.5315 23 57.1741V40.4238C23 39.0664 23.4911 37.7646 24.3652 36.8048C25.2393 35.8449 26.4248 35.3057 27.661 35.3057H44.6102C44.9473 35.3057 45.2706 35.4528 45.509 35.7145C45.7474 35.9763 45.8814 36.3313 45.8814 36.7015C45.8814 37.0717 45.7474 37.4268 45.509 37.6886C45.2706 37.9503 44.9473 38.0974 44.6102 38.0974H27.661C27.0991 38.0974 26.5602 38.3425 26.1629 38.7788C25.7656 39.2151 25.5424 39.8068 25.5424 40.4238ZM64.9492 33.4446H58.1695C57.8324 33.4446 57.509 33.5916 57.2706 33.8534C57.0322 34.1152 56.8983 34.4702 56.8983 34.8404C56.8983 35.2106 57.0322 35.5656 57.2706 35.8274C57.509 36.0892 57.8324 36.2363 58.1695 36.2363H64.9492C65.2863 36.2363 65.6096 36.0892 65.848 35.8274C66.0864 35.5656 66.2203 35.2106 66.2203 34.8404C66.2203 34.4702 66.0864 34.1152 65.848 33.8534C65.6096 33.5916 65.2863 33.4446 64.9492 33.4446ZM64.9492 40.8891H58.1695C57.8324 40.8891 57.509 41.0362 57.2706 41.2979C57.0322 41.5597 56.8983 41.9148 56.8983 42.285C56.8983 42.6552 57.0322 43.0102 57.2706 43.272C57.509 43.5338 57.8324 43.6808 58.1695 43.6808H64.9492C65.2863 43.6808 65.6096 43.5338 65.848 43.272C66.0864 43.0102 66.2203 42.6552 66.2203 42.285C66.2203 41.9148 66.0864 41.5597 65.848 41.2979C65.6096 41.0362 65.2863 40.8891 64.9492 40.8891ZM73 29.257V66.4798C73 67.3436 72.6875 68.172 72.1312 68.7828C71.575 69.3936 70.8206 69.7367 70.0339 69.7367H53.0847C52.2981 69.7367 51.5436 69.3936 50.9874 68.7828C50.4311 68.172 50.1186 67.3436 50.1186 66.4798V29.257C50.1186 28.3932 50.4311 27.5648 50.9874 26.954C51.5436 26.3431 52.2981 26 53.0847 26H70.0339C70.8206 26 71.575 26.3431 72.1312 26.954C72.6875 27.5648 73 28.3932 73 29.257ZM70.4576 29.257C70.4576 29.1336 70.413 29.0152 70.3335 28.928C70.2541 28.8407 70.1463 28.7917 70.0339 28.7917H53.0847C52.9724 28.7917 52.8646 28.8407 52.7851 28.928C52.7057 29.0152 52.661 29.1336 52.661 29.257V66.4798C52.661 66.6032 52.7057 66.7215 52.7851 66.8088C52.8646 66.896 52.9724 66.945 53.0847 66.945H70.0339C70.1463 66.945 70.2541 66.896 70.3335 66.8088C70.413 66.7215 70.4576 66.6032 70.4576 66.4798V29.257ZM61.5593 57.6393C61.1403 57.6393 60.7307 57.7758 60.3823 58.0314C60.0339 58.2871 59.7623 58.6504 59.602 59.0755C59.4416 59.5006 59.3996 59.9684 59.4814 60.4196C59.5631 60.8709 59.7649 61.2854 60.0612 61.6108C60.3575 61.9362 60.735 62.1577 61.146 62.2475C61.557 62.3373 61.983 62.2912 62.3701 62.1151C62.7572 61.939 63.0881 61.6408 63.3209 61.2583C63.5537 60.8757 63.678 60.4259 63.678 59.9658C63.678 59.3488 63.4548 58.757 63.0574 58.3207C62.6601 57.8845 62.1212 57.6393 61.5593 57.6393Z" fill="#FA6400"/>
<defs>
<filter id="filter0_d_2594_226" x="0" y="0" width="97" height="97" filterUnits="userSpaceOnUse" color-interpolation-filters="sRGB">
<feFlood flood-opacity="0" result="BackgroundImageFix"/>
<feColorMatrix in="SourceAlpha" type="matrix" values="0 0 0 0 0 0 0 0 0 0 0 0 0 0 0 0 0 0 127 0" result="hardAlpha"/>
<feOffset dy="1"/>
<feGaussianBlur stdDeviation="5"/>
<feComposite in2="hardAlpha" operator="out"/>
<feColorMatrix type="matrix" values="0 0 0 0 1 0 0 0 0 0.48 0 0 0 0 0 0 0 0 0.18 0"/>
<feBlend mode="normal" in2="BackgroundImageFix" result="effect1_dropShadow_2594_226"/>
<feBlend mode="normal" in="SourceGraphic" in2="effect1_dropShadow_2594_226" result="shape"/>
</filter>
</defs>
</svg>
