<svg width="97" height="97" viewBox="0 0 97 97" fill="none" xmlns="http://www.w3.org/2000/svg">
<g filter="url(#filter0_d_2594_236)">
<circle cx="48.5" cy="47.5" r="38.5" fill="white"/>
<circle cx="48.5" cy="47.5" r="38.25" stroke="#FFF2E7" stroke-width="0.5"/>
</g>
<g filter="url(#filter1_d_2594_236)">
<path d="M64.8109 52.8666C64.8092 51.1994 64.2027 49.6009 63.1245 48.422C62.0463 47.243 60.5845 46.5798 59.0597 46.5779H38.9375C38.1749 46.5771 37.4437 46.2455 36.9044 45.6558C36.3651 45.0662 36.0618 44.2668 36.0609 43.4329V38.4958C37.0492 38.2141 37.9509 37.6493 38.6731 36.8597C39.3953 36.0701 39.9118 35.0842 40.1695 34.0036H57.8277C58.1776 35.4852 59.0097 36.7765 60.168 37.6354C61.3263 38.4942 62.7313 38.8617 64.1197 38.6688C65.508 38.476 66.7844 37.7362 67.7096 36.588C68.6347 35.4398 69.1451 33.962 69.1451 32.4318C69.1451 30.9015 68.6347 29.4238 67.7096 28.2756C66.7844 27.1274 65.508 26.3876 64.1197 26.1947C62.7313 26.0019 61.3263 26.3694 60.168 27.2282C59.0097 28.0871 58.1776 29.3783 57.8277 30.86H40.1695C39.918 29.7877 39.4115 28.8072 38.7014 28.0181C37.9913 27.229 37.1028 26.6594 36.1263 26.3671C35.1498 26.0749 34.1199 26.0703 33.1413 26.3539C32.1626 26.6376 31.27 27.1993 30.5541 27.9821C29.8382 28.7649 29.3244 29.7408 29.065 30.8109C28.8056 31.881 28.8097 33.0071 29.077 34.0748C29.3443 35.1426 29.8652 36.114 30.5869 36.8904C31.3085 37.6669 32.2052 38.2207 33.1859 38.4958V43.4329C33.1878 45.1002 33.7943 46.6986 34.8726 47.8775C35.9508 49.0564 37.4127 49.7196 38.9375 49.7215H59.0597C59.8223 49.7223 60.5534 50.054 61.0927 50.6436C61.6319 51.2333 61.9352 52.0328 61.9359 52.8666V57.5804H57.6234V62.2958H40.1695C39.8196 60.8141 38.9875 59.5229 37.8292 58.664C36.6709 57.8052 35.2659 57.4377 33.8775 57.6305C32.4892 57.8233 31.2128 58.5632 30.2876 59.7114C29.3625 60.8596 28.8521 62.3373 28.8521 63.8676C28.8521 65.3978 29.3625 66.8755 30.2876 68.0237C31.2128 69.1719 32.4892 69.9118 33.8775 70.1046C35.2659 70.2974 36.6709 69.93 37.8292 69.0711C38.9875 68.2123 39.8196 66.921 40.1695 65.4394H57.6234V70.1547H69.1234V57.5804H64.8109V52.8666ZM63.3734 29.2882C63.9421 29.2882 64.4979 29.4726 64.9707 29.818C65.4435 30.1634 65.812 30.6544 66.0296 31.2288C66.2472 31.8032 66.3041 32.4353 66.1932 33.0451C66.0823 33.6549 65.8085 34.215 65.4064 34.6546C65.0043 35.0943 64.492 35.3937 63.9343 35.515C63.3766 35.6363 62.7986 35.574 62.2732 35.3361C61.7479 35.0982 61.2989 34.6952 60.983 34.1783C60.6671 33.6613 60.4984 33.0535 60.4984 32.4318C60.4992 31.5983 60.8023 30.7992 61.3413 30.2098C61.8803 29.6205 62.6112 29.289 63.3734 29.2882ZM31.7484 32.4318C31.7484 31.8101 31.9171 31.2023 32.233 30.6853C32.5489 30.1684 32.9979 29.7654 33.5232 29.5275C34.0486 29.2896 34.6266 29.2273 35.1843 29.3486C35.742 29.4699 36.2543 29.7693 36.6564 30.2089C37.0585 30.6486 37.3323 31.2087 37.4432 31.8185C37.5541 32.4283 37.4972 33.0604 37.2796 33.6348C37.062 34.2092 36.6935 34.7002 36.2207 35.0456C35.7479 35.391 35.1921 35.5754 34.6234 35.5754C33.8612 35.5746 33.1303 35.2431 32.5913 34.6538C32.0523 34.0644 31.7492 33.2653 31.7484 32.4318ZM34.6234 67.0112C34.0548 67.0112 33.499 66.8268 33.0262 66.4814C32.5534 66.1359 32.1849 65.645 31.9673 65.0706C31.7497 64.4962 31.6928 63.8641 31.8037 63.2543C31.9146 62.6445 32.1884 62.0844 32.5905 61.6447C32.9926 61.2051 33.5049 60.9057 34.0626 60.7844C34.6203 60.6631 35.1983 60.7254 35.7237 60.9633C36.249 61.2012 36.698 61.6041 37.0139 62.1211C37.3298 62.6381 37.4984 63.2458 37.4984 63.8676C37.4977 64.701 37.1945 65.5001 36.6555 66.0895C36.1165 66.6789 35.3857 67.0103 34.6234 67.0112ZM66.2484 60.724V67.0112H60.4984V60.724H66.2484Z" fill="#FA6400"/>
</g>
<defs>
<filter id="filter0_d_2594_236" x="0" y="0" width="97" height="97" filterUnits="userSpaceOnUse" color-interpolation-filters="sRGB">
<feFlood flood-opacity="0" result="BackgroundImageFix"/>
<feColorMatrix in="SourceAlpha" type="matrix" values="0 0 0 0 0 0 0 0 0 0 0 0 0 0 0 0 0 0 127 0" result="hardAlpha"/>
<feOffset dy="1"/>
<feGaussianBlur stdDeviation="5"/>
<feComposite in2="hardAlpha" operator="out"/>
<feColorMatrix type="matrix" values="0 0 0 0 1 0 0 0 0 0.48 0 0 0 0 0 0 0 0 0.18 0"/>
<feBlend mode="normal" in2="BackgroundImageFix" result="effect1_dropShadow_2594_236"/>
<feBlend mode="normal" in="SourceGraphic" in2="effect1_dropShadow_2594_236" result="shape"/>
</filter>
<filter id="filter1_d_2594_236" x="21.8521" y="19.1445" width="54.293" height="58.0102" filterUnits="userSpaceOnUse" color-interpolation-filters="sRGB">
<feFlood flood-opacity="0" result="BackgroundImageFix"/>
<feColorMatrix in="SourceAlpha" type="matrix" values="0 0 0 0 0 0 0 0 0 0 0 0 0 0 0 0 0 0 127 0" result="hardAlpha"/>
<feOffset/>
<feGaussianBlur stdDeviation="3.5"/>
<feComposite in2="hardAlpha" operator="out"/>
<feColorMatrix type="matrix" values="0 0 0 0 0.970833 0 0 0 0 0.592208 0 0 0 0 0.242708 0 0 0 0.2 0"/>
<feBlend mode="normal" in2="BackgroundImageFix" result="effect1_dropShadow_2594_236"/>
<feBlend mode="normal" in="SourceGraphic" in2="effect1_dropShadow_2594_236" result="shape"/>
</filter>
</defs>
</svg>
