<svg width="24" height="25" viewBox="0 0 24 25" fill="none" xmlns="http://www.w3.org/2000/svg">
<path d="M17 2.25H7C4.23858 2.25 2 4.48858 2 7.25V17.25C2 20.0114 4.23858 22.25 7 22.25H17C19.7614 22.25 22 20.0114 22 17.25V7.25C22 4.48858 19.7614 2.25 17 2.25Z" stroke="white" stroke-width="2" stroke-linecap="round" stroke-linejoin="round"/>
<path d="M16.0002 11.6198C16.1236 12.4521 15.9815 13.302 15.594 14.0488C15.2065 14.7956 14.5933 15.4012 13.8418 15.7795C13.0903 16.1577 12.2386 16.2894 11.408 16.1557C10.5773 16.0221 9.80996 15.6299 9.21503 15.035C8.62011 14.4401 8.22793 13.6727 8.09426 12.842C7.9606 12.0114 8.09226 11.1597 8.47052 10.4082C8.84878 9.65667 9.45438 9.04355 10.2012 8.65605C10.948 8.26856 11.7979 8.1264 12.6302 8.24981C13.4791 8.3757 14.265 8.77128 14.8719 9.37812C15.4787 9.98496 15.8743 10.7709 16.0002 11.6198Z" stroke="white" stroke-width="2" stroke-linecap="round" stroke-linejoin="round"/>
<path d="M17.5 6.75H17.51" stroke="white" stroke-width="2" stroke-linecap="round" stroke-linejoin="round"/>
</svg>
