<svg width="32" height="28" viewBox="0 0 32 28" fill="none" xmlns="http://www.w3.org/2000/svg">
<path d="M16.265 2.03833C8.66053 2.03833 2.49902 7.46105 2.49902 14.1537C2.49902 20.8464 8.66053 26.2691 16.265 26.2691C23.8695 26.2691 30.031 20.8464 30.031 14.1537C30.031 7.46105 23.8695 2.03833 16.265 2.03833ZM11.0413 19.4482C10.9568 19.5751 10.8359 19.68 10.6907 19.7527C10.5455 19.8253 10.3811 19.863 10.2141 19.862C10.0439 19.8633 9.87664 19.8229 9.73108 19.7452C9.62271 19.6899 9.5278 19.6163 9.45181 19.5287C9.37582 19.4411 9.32025 19.3411 9.28827 19.2345C9.25629 19.1279 9.24855 19.0168 9.26548 18.9076C9.28241 18.7984 9.32369 18.6932 9.38693 18.598L10.3266 17.2231C10.3741 17.1522 10.4418 17.0934 10.5231 17.0526C10.6044 17.0118 10.6964 16.9904 10.79 16.9906H10.9288C11.6104 16.9906 12.0873 17.3513 12.2262 17.7007L11.0413 19.4482ZM18.9967 16.7439L12.8432 16.7499H8.75333C8.62465 16.7503 8.49721 16.7278 8.37872 16.6836C8.26024 16.6395 8.15318 16.5746 8.06405 16.4929C7.97492 16.4112 7.90557 16.3144 7.8602 16.2085C7.81484 16.1025 7.79441 15.9895 7.80016 15.8764C7.81982 15.422 8.27029 15.0781 8.78344 15.0781H11.748L15.2627 9.81273L14.1245 8.1063C13.8683 7.71742 13.9819 7.20468 14.4214 6.96021C14.5297 6.89855 14.6511 6.8568 14.7782 6.83749C14.9053 6.81817 15.0356 6.82168 15.1611 6.8478C15.2867 6.87392 15.4049 6.92211 15.5088 6.98948C15.6126 7.05685 15.6999 7.14201 15.7654 7.23983L16.3738 8.15444H16.3805L16.9896 7.23983C17.0551 7.14252 17.1423 7.05782 17.2458 6.99079C17.3494 6.92375 17.4672 6.87576 17.5923 6.84966C17.7174 6.82357 17.8472 6.81991 17.9739 6.8389C18.1006 6.85789 18.2217 6.89915 18.3299 6.96021C18.7669 7.20468 18.8793 7.71742 18.6212 8.10792L17.4831 9.81435L16.3769 11.4743L13.9746 15.0797V15.0856H17.515C17.9587 15.0856 18.5149 15.2955 18.7398 15.633L18.7595 15.6681C18.958 15.9651 19.0704 16.169 19.0704 16.4659C19.0672 16.5623 19.0428 16.6573 18.9985 16.7455L18.9967 16.7439ZM23.7749 16.7499H22.1088V16.7558L23.3268 18.5791C23.4578 18.7711 23.4979 19.0007 23.4385 19.2185C23.3791 19.4363 23.2249 19.6248 23.0091 19.7436C22.8595 19.8238 22.6877 19.8663 22.5126 19.8663C22.346 19.8663 22.1823 19.8283 22.0373 19.7561C21.8924 19.6838 21.7711 19.5799 21.6854 19.4542L19.8853 16.7574L18.7669 15.0808L17.3239 12.9097C17.1149 12.5997 17.0013 12.2471 16.9943 11.8867C16.9873 11.5263 17.0871 11.1705 17.2839 10.8544C17.5691 10.4115 17.7873 10.2952 17.7873 10.2952L20.9971 15.0732H23.757C24.2733 15.0732 24.7163 15.4226 24.7403 15.871C24.7453 15.985 24.724 16.0987 24.6778 16.2052C24.6316 16.3118 24.5614 16.4091 24.4714 16.4912C24.3813 16.5733 24.2734 16.6385 24.154 16.683C24.0347 16.7274 23.9063 16.7502 23.7767 16.7499H23.7749Z" fill="white"/>
</svg>
