<svg width="30" height="26" viewBox="0 0 30 26" fill="none" xmlns="http://www.w3.org/2000/svg">
<path d="M3.22461 3.25698V22.7417C3.22476 22.7839 3.23908 22.8252 3.26579 22.8604C3.2925 22.8955 3.3304 22.9229 3.37474 22.9392C3.41908 22.9554 3.46788 22.9598 3.51504 22.9517C3.56219 22.9437 3.60559 22.9235 3.63979 22.8939L15.1674 12.9998L3.63979 3.10478C3.60559 3.0751 3.56219 3.05496 3.51504 3.04691C3.46788 3.03885 3.41908 3.04322 3.37474 3.05947C3.3304 3.07573 3.2925 3.10314 3.26579 3.13828C3.23908 3.17342 3.22476 3.21471 3.22461 3.25698Z" fill="white"/>
<path d="M20.0009 8.93446L5.54668 1.92592L5.53766 1.92146C5.28867 1.80247 5.05206 2.09895 5.25599 2.27149L16.5865 11.8066L20.0009 8.93446Z" fill="white"/>
<path d="M5.25714 23.7285C5.05209 23.901 5.28869 24.1975 5.53881 24.0785L5.54783 24.074L20.0009 17.0655L16.5865 14.1924L5.25714 23.7285Z" fill="white"/>
<path d="M25.836 11.7604L21.7996 9.80396L18.0044 12.9998L21.7996 16.1942L25.836 14.2393C26.9339 13.7054 26.9339 12.2943 25.836 11.7604Z" fill="white"/>
</svg>
