<svg width="24" height="25" viewBox="0 0 24 25" fill="none" xmlns="http://www.w3.org/2000/svg">
<path d="M16 9.25C17.3261 9.25 18.5979 9.77678 19.5355 10.7145C20.4732 11.6521 21 12.9239 21 14.25V20.25H19V14.25C19 13.4543 18.6839 12.6913 18.1213 12.1287C17.5587 11.5661 16.7957 11.25 16 11.25C15.2043 11.25 14.4413 11.5661 13.8787 12.1287C13.3161 12.6913 13 13.4543 13 14.25V20.25H11V14.25C11 12.9239 11.5268 11.6521 12.4645 10.7145C13.4021 9.77678 14.6739 9.25 16 9.25Z" stroke="white" stroke-width="2" stroke-linecap="round" stroke-linejoin="round"/>
<path d="M3 20.25V10.25H5V20.25H3Z" stroke="white" stroke-width="2" stroke-linecap="round" stroke-linejoin="round"/>
<path d="M5 4.25C5 4.80228 4.55228 5.25 4 5.25C3.44772 5.25 3 4.80228 3 4.25C3 3.69772 3.44772 3.25 4 3.25C4.55228 3.25 5 3.69772 5 4.25Z" stroke="white" stroke-width="2" stroke-linecap="round" stroke-linejoin="round"/>
</svg>
